<svg xmlns="http://www.w3.org/2000/svg" xmlns:xlink="http://www.w3.org/1999/xlink" viewBox="0,0,256,256" width="48px" height="48px" fill-rule="nonzero"><g fill="#cd0404" fill-rule="nonzero" stroke="none" stroke-width="1" stroke-linecap="butt" stroke-linejoin="miter" stroke-miterlimit="10" stroke-dasharray="" stroke-dashoffset="0" font-family="none" font-weight="none" font-size="none" text-anchor="none" style="mix-blend-mode: normal"><g transform="scale(10.66667,10.66667)"><path d="M8,3c-2.75529,0 -5,2.24471 -5,5v8c0,2.75529 2.24471,5 5,5h8c2.75529,0 5,-2.24471 5,-5v-8c0,-2.75529 -2.24471,-5 -5,-5zM8,4h8c2.21471,0 4,1.78529 4,4v8c0,2.21471 -1.78529,4 -4,4h-8c-2.21471,0 -4,-1.78529 -4,-4v-8c0,-2.21471 1.78529,-4 4,-4zM17.5,6c-0.27614,0 -0.5,0.22386 -0.5,0.5c0,0.27614 0.22386,0.5 0.5,0.5c0.27614,0 0.5,-0.22386 0.5,-0.5c0,-0.27614 -0.22386,-0.5 -0.5,-0.5zM12,7c-1.625,0 -2.90641,0.62738 -3.74805,1.57422c-0.84164,0.94684 -1.25195,2.18967 -1.25195,3.42578c0,1.23611 0.41032,2.47894 1.25195,3.42578c0.84164,0.94684 2.12305,1.57422 3.74805,1.57422c1.625,0 2.90641,-0.62738 3.74805,-1.57422c0.84164,-0.94684 1.25195,-2.18967 1.25195,-3.42578c0,-1.23611 -0.41032,-2.47894 -1.25195,-3.42578c-0.84164,-0.94684 -2.12305,-1.57422 -3.74805,-1.57422zM12,8c1.375,0 2.34359,0.49762 3.00195,1.23828c0.65836,0.74066 0.99805,1.74783 0.99805,2.76172c0,1.01389 -0.33968,2.02106 -0.99805,2.76172c-0.65836,0.74066 -1.62695,1.23828 -3.00195,1.23828c-1.375,0 -2.34359,-0.49762 -3.00195,-1.23828c-0.65836,-0.74066 -0.99805,-1.74783 -0.99805,-2.76172c0,-1.01389 0.33968,-2.02106 0.99805,-2.76172c0.65836,-0.74066 1.62695,-1.23828 3.00195,-1.23828z"></path></g></g></svg>